<?xml version="1.0" encoding="UTF-8" standalone="no"?>
<!-- Created with Inkscape (http://www.inkscape.org/) -->

<svg
   xmlns:dc="http://purl.org/dc/elements/1.1/"
   xmlns:cc="http://creativecommons.org/ns#"
   xmlns:rdf="http://www.w3.org/1999/02/22-rdf-syntax-ns#"
   xmlns:svg="http://www.w3.org/2000/svg"
   xmlns="http://www.w3.org/2000/svg"
   xmlns:sodipodi="http://sodipodi.sourceforge.net/DTD/sodipodi-0.dtd"
   xmlns:inkscape="http://www.inkscape.org/namespaces/inkscape"
   width="114.26178"
   height="114.26178"
   id="svg43251"
   version="1.1"
   inkscape:version="0.48.3.1 r9886"
   sodipodi:docname="icon.svg">
  <defs
     id="defs43253">
    <filter
       inkscape:collect="always"
       id="filter43905">
      <feGaussianBlur
         inkscape:collect="always"
         stdDeviation="0.91075904"
         id="feGaussianBlur43907" />
    </filter>
  </defs>
  <sodipodi:namedview
     id="base"
     pagecolor="#ffffff"
     bordercolor="#666666"
     borderopacity="1.0"
     inkscape:pageopacity="0.0"
     inkscape:pageshadow="2"
     inkscape:zoom="1.979899"
     inkscape:cx="36.945634"
     inkscape:cy="59.307486"
     inkscape:document-units="px"
     inkscape:current-layer="layer1"
     showgrid="false"
     fit-margin-top="0"
     fit-margin-left="0"
     fit-margin-right="0"
     fit-margin-bottom="0"
     inkscape:window-width="953"
     inkscape:window-height="633"
     inkscape:window-x="496"
     inkscape:window-y="189"
     inkscape:window-maximized="0" />
  <metadata
     id="metadata43256">
    <rdf:RDF>
      <cc:Work
         rdf:about="">
        <dc:format>image/svg+xml</dc:format>
        <dc:type
           rdf:resource="http://purl.org/dc/dcmitype/StillImage" />
        <dc:title />
      </cc:Work>
    </rdf:RDF>
  </metadata>
  <g
     inkscape:label="Layer 1"
     inkscape:groupmode="layer"
     id="layer1"
     transform="translate(-251.44054,-409.51701)">
     <!-- #2b2b2b -->
    <path
       sodipodi:type="arc"
       style="fill:#5d8c85;fill-opacity:1;stroke:none;opacity:1"
       id="path22600-7-2-3-0-6-2-7-5-6-5-6-0-4-5-57-1-9-4-4-3-0-2-4-2-2-7-0-3-9-9-3-9"
       sodipodi:cx="99.24749"
       sodipodi:cy="245.75537"
       sodipodi:rx="38.026928"
       sodipodi:ry="38.026928"
       d="m 137.27442,245.75537 c 0,21.00169 -17.02524,38.02693 -38.02693,38.02693 -21.001692,0 -38.026928,-17.02524 -38.026928,-38.02693 0,-21.00169 17.025236,-38.02693 38.026928,-38.02693 21.00169,0 38.02693,17.02524 38.02693,38.02693 z"
       transform="matrix(1.3434612,-0.67176529,0.67176529,1.3434612,10.146349,203.15611)" />
    <path
       style="fill:none;stroke:#ffffff;stroke-width:1.70000005;stroke-linecap:butt;stroke-linejoin:miter;stroke-miterlimit:4;stroke-opacity:1;stroke-dasharray:none"
       d="m 288.59025,450.92731 23.2142,16.0714 -2.2421,28.227"
       id="path22706-0-47-8-62-3-1-7-4-7-06-5-4-8-10-6-1-9-6-1-7-9-6-8-4-4-5-14-1-2-2-7-6"
       inkscape:connector-curvature="0"
       sodipodi:nodetypes="ccc" />
    <path
       style="fill:none;stroke:#ffffff;stroke-width:1.70000005;stroke-linecap:butt;stroke-linejoin:miter;stroke-miterlimit:4;stroke-opacity:1;stroke-dasharray:none"
       d="m 339.48305,471.82011 -28.2143,-1.7857 26.0715,20.5357"
       id="path22708-5-7-1-01-2-5-7-3-7-86-8-8-4-28-2-3-5-7-6-6-8-1-2-5-7-9-5-5-57-3-4-9"
       inkscape:connector-curvature="0" />
    <g
       transform="translate(2604.1726,4343.2974)"
       id="g33392-5-3-2-0-4-27-5-9-8-8-0-6-8-8-9-8"
       style="filter:url(#filter43905)">
      <path
         transform="matrix(0.98309265,-0.18310879,0.18310879,0.98309265,855.28454,-562.36623)"
         inkscape:connector-curvature="0"
         id="path30233-03-9-0-6-6-27-6-9-1-0-3-5-5-0-9-2-2-5-7"
         d="m -2529.1731,-3819.4358 -17.1726,15.6574"
         style="fill:none;stroke:#ffffff;stroke-width:10;stroke-linecap:round;stroke-linejoin:miter;stroke-miterlimit:4;stroke-opacity:1;stroke-dasharray:none" />
      <path
         sodipodi:type="arc"
         style="fill:#ffffff;fill-opacity:1;stroke:none"
         id="path22279-2-9-3-4-1-5-5-8-0-9-6-92-2-8-9-9-1-7-6-5-4-6-6-6-1-3-1-4-4-4-4-5-4"
         sodipodi:cx="190.71428"
         sodipodi:cy="403.43362"
         sodipodi:rx="39.642857"
         sodipodi:ry="39.642857"
         d="m 230.35714,403.43362 c 0,21.89415 -17.74872,39.64286 -39.64286,39.64286 -21.89415,0 -39.64286,-17.74871 -39.64286,-39.64286 0,-21.89414 17.74871,-39.64285 39.64286,-39.64285 21.89414,0 39.64286,17.74871 39.64286,39.64285 z"
         transform="matrix(0.40991694,0.1737663,-0.1737663,0.40991694,-2298.9846,-4071.9451)" />
      <path
         sodipodi:type="arc"
         style="fill:#ffffff;fill-opacity:1;stroke:none"
         id="path22315-0-4-9-6-47-6-6-7-5-8-2-6-4-74-85-0-6-6-5-2-7-6-9-5-2-3-5-8-3-5-8-9-4"
         sodipodi:cx="190.71428"
         sodipodi:cy="403.43362"
         sodipodi:rx="39.642857"
         sodipodi:ry="39.642857"
         d="m 230.35714,403.43362 c 0,21.89415 -17.74872,39.64286 -39.64286,39.64286 -21.89415,0 -39.64286,-17.74871 -39.64286,-39.64286 0,-21.89414 17.74871,-39.64285 39.64286,-39.64285 21.89414,0 39.64286,17.74871 39.64286,39.64285 z"
         transform="matrix(0.32806709,0.14529984,-0.14529984,0.32806709,-2332.753,-4014.2337)" />
      <path
         sodipodi:type="arc"
         style="fill:#ffffff;fill-opacity:1;stroke:none"
         id="path22373-3-0-0-2-3-0-1-4-2-4-9-7-0-2-7-35-8-0-3-3-5-6-6-8-3-46-9-4-6-3-4-3-5"
         sodipodi:cx="190.71428"
         sodipodi:cy="403.43362"
         sodipodi:rx="39.642857"
         sodipodi:ry="39.642857"
         d="m 230.35714,403.43362 c 0,21.89415 -17.74872,39.64286 -39.64286,39.64286 -21.89415,0 -39.64286,-17.74871 -39.64286,-39.64286 0,-21.89414 17.74871,-39.64285 39.64286,-39.64285 21.89414,0 39.64286,17.74871 39.64286,39.64285 z"
         transform="matrix(0.35733707,0.01412833,-0.01412833,0.35733707,-2326.335,-4048.7105)" />
      <rect
         transform="matrix(0.8869417,-0.46188139,0.46188139,0.8869417,-1859.7638,-2293.9257)"
         y="-1604.2861"
         x="311.69708"
         height="9.2819176"
         width="20.357147"
         id="rect22712-8-8-7-5-9-6-0-1-5-5-1-7-8-6-0-4-3-9-0-9-9-4-1-5-1-3-7-02-6-0-8-0-4"
         style="fill:#ffffff;fill-opacity:1;stroke:none" />
      <rect
         transform="matrix(0.72200884,-0.69188383,0.69188383,0.72200884,-1478.6257,-2454.1464)"
         y="-1591.8364"
         x="406.6593"
         height="8.6629725"
         width="20.357147"
         id="rect22712-5-1-6-1-6-6-2-9-8-4-4-4-9-3-7-8-1-6-0-1-9-8-9-1-60-6-7-9-3-8-8-2-9"
         style="fill:#ffffff;fill-opacity:1;stroke:none" />
      <path
         transform="matrix(0.99627289,-0.08625735,0.08625735,0.99627289,524.61104,-260.34533)"
         sodipodi:nodetypes="cc"
         inkscape:connector-curvature="0"
         id="path30233-6-9-3-4-3-7-4-9-6-1-5-9-1-7-2-3-2-1-0-7"
         d="m -2450.5074,-3888.4419 -12.1218,20.4557"
         style="fill:none;stroke:#ffffff;stroke-width:10;stroke-linecap:round;stroke-linejoin:miter;stroke-miterlimit:4;stroke-opacity:1;stroke-dasharray:none" />
    </g>
    <path
       style="fill:none;stroke:#464646;stroke-width:2.79999995;stroke-linecap:round;stroke-linejoin:miter;stroke-miterlimit:4;stroke-opacity:1;stroke-dasharray:none"
       d="m 259.12585,508.24871 15.8929,-19.1071 38.2142,-17.5 27.6787,-30.5357 11.4897,-21.7208"
       id="path22704-5-2-0-3-9-2-5-4-9-5-9-2-7-5-6-9-6-6-9-1-3-5-2-0-9-3-7-1-3-7-2-6"
       inkscape:connector-curvature="0"
       sodipodi:nodetypes="ccccc" />
    <path
       transform="matrix(0.31463334,0.133375,-0.133375,0.31463334,307.06465,317.49611)"
       d="m 230.35714,403.43362 c 0,21.89415 -17.74872,39.64286 -39.64286,39.64286 -21.89415,0 -39.64286,-17.74871 -39.64286,-39.64286 0,-21.89414 17.74871,-39.64285 39.64286,-39.64285 21.89414,0 39.64286,17.74871 39.64286,39.64285 z"
       sodipodi:ry="39.642857"
       sodipodi:rx="39.642857"
       sodipodi:cy="403.43362"
       sodipodi:cx="190.71428"
       id="path22279-5-5-4-51-0-5-4-9-9-0-5-8-81-94-68-8-0-3-1-6-7-2-6-12-5-9-6-0-4-7-1-0"
       style="fill:#f98c60;fill-opacity:1;stroke:#464646;stroke-width:7.02297925999999961;stroke-miterlimit:4;stroke-opacity:1;stroke-dasharray:none"
       sodipodi:type="arc" />
    <path
       transform="matrix(0.23489644,0.10403486,-0.10403486,0.23489644,272.54085,374.52171)"
       d="m 230.35714,403.43362 c 0,21.89415 -17.74872,39.64286 -39.64286,39.64286 -21.89415,0 -39.64286,-17.74871 -39.64286,-39.64286 0,-21.89414 17.74871,-39.64285 39.64286,-39.64285 21.89414,0 39.64286,17.74871 39.64286,39.64285 z"
       sodipodi:ry="39.642857"
       sodipodi:rx="39.642857"
       sodipodi:cy="403.43362"
       sodipodi:cx="190.71428"
       id="path22315-6-9-1-2-4-1-0-0-8-0-6-0-12-21-75-3-6-9-8-5-9-2-8-6-7-2-8-3-76-8-0-4"
       style="fill:#ed6542;fill-opacity:1;stroke:#464646;stroke-width:9.34201622;stroke-miterlimit:4;stroke-opacity:1;stroke-dasharray:none"
       sodipodi:type="arc" />
    <path
       transform="matrix(0.1088967,0.04817553,-0.04817553,0.1088967,339.10415,418.29821)"
       d="m 230.35714,403.43362 c 0,21.89415 -17.74872,39.64286 -39.64286,39.64286 -21.89415,0 -39.64286,-17.74871 -39.64286,-39.64286 0,-21.89414 17.74871,-39.64285 39.64286,-39.64285 21.89414,0 39.64286,17.74871 39.64286,39.64285 z"
       sodipodi:ry="39.642857"
       sodipodi:rx="39.642857"
       sodipodi:cy="403.43362"
       sodipodi:cx="190.71428"
       id="path22359-3-7-5-0-3-2-0-4-1-58-9-3-7-68-3-7-5-3-02-5-8-47-7-7-5-0-35-9-93-7-4-5"
       style="fill:#ffffff;fill-opacity:1;stroke:none"
       sodipodi:type="arc" />
    <path
       transform="matrix(0.16945082,-0.12371696,0.12371696,0.16945082,205.31015,405.50991)"
       d="m 230.35714,403.43362 c 0,21.89415 -17.74872,39.64286 -39.64286,39.64286 -21.89415,0 -39.64286,-17.74871 -39.64286,-39.64286 0,-21.89414 17.74871,-39.64285 39.64286,-39.64285 21.89414,0 39.64286,17.74871 39.64286,39.64285 z"
       sodipodi:ry="39.642857"
       sodipodi:rx="39.642857"
       sodipodi:cy="403.43362"
       sodipodi:cx="190.71428"
       id="path22361-3-8-8-2-7-9-6-1-7-6-5-9-4-1-29-5-8-4-6-7-8-0-8-2-9-2-2-1-2-6-8-5"
       style="fill:#ffffff;fill-opacity:1;stroke:none"
       sodipodi:type="arc" />
    <path
       transform="matrix(0.09307798,0.00542274,-0.00542274,0.09307798,293.73375,456.78231)"
       d="m 230.35714,403.43362 c 0,21.89415 -17.74872,39.64286 -39.64286,39.64286 -21.89415,0 -39.64286,-17.74871 -39.64286,-39.64286 0,-21.89414 17.74871,-39.64285 39.64286,-39.64285 21.89414,0 39.64286,17.74871 39.64286,39.64285 z"
       sodipodi:ry="39.642857"
       sodipodi:rx="39.642857"
       sodipodi:cy="403.43362"
       sodipodi:cx="190.71428"
       id="path22363-8-6-2-1-2-7-0-8-3-4-7-6-8-3-0-4-1-0-4-0-2-68-7-8-0-0-8-6-7-5-9-7"
       style="fill:#ffffff;fill-opacity:1;stroke:none"
       sodipodi:type="arc" />
    <path
       transform="matrix(0.19218343,0.05977609,-0.05977609,0.19218343,325.42905,402.22321)"
       d="m 230.35714,403.43362 c 0,21.89415 -17.74872,39.64286 -39.64286,39.64286 -21.89415,0 -39.64286,-17.74871 -39.64286,-39.64286 0,-21.89414 17.74871,-39.64285 39.64286,-39.64285 21.89414,0 39.64286,17.74871 39.64286,39.64285 z"
       sodipodi:ry="39.642857"
       sodipodi:rx="39.642857"
       sodipodi:cy="403.43362"
       sodipodi:cx="190.71428"
       id="path22365-5-6-7-4-1-7-1-0-6-3-8-7-78-5-0-2-0-4-4-9-5-2-2-6-9-5-3-6-7-3-8-8"
       style="fill:#ffffff;fill-opacity:1;stroke:none"
       sodipodi:type="arc" />
    <path
       transform="matrix(0.25708417,0.01016455,-0.01016455,0.25708417,295.35805,335.78821)"
       d="m 230.35714,403.43362 c 0,21.89415 -17.74872,39.64286 -39.64286,39.64286 -21.89415,0 -39.64286,-17.74871 -39.64286,-39.64286 0,-21.89414 17.74871,-39.64285 39.64286,-39.64285 21.89414,0 39.64286,17.74871 39.64286,39.64285 z"
       sodipodi:ry="39.642857"
       sodipodi:rx="39.642857"
       sodipodi:cy="403.43362"
       sodipodi:cx="190.71428"
       id="path22373-5-7-7-53-1-0-4-2-8-4-1-6-5-31-560-3-8-4-6-0-8-1-9-1-36-3-6-0-1-4-2-2"
       style="fill:#ffba9f;fill-opacity:1;stroke:#464646;stroke-width:9.32817554000000015;stroke-miterlimit:4;stroke-opacity:1;stroke-dasharray:none"
       sodipodi:type="arc" />
    <path
       transform="matrix(0.1088967,0.04817553,-0.04817553,0.1088967,316.23455,375.59741)"
       d="m 230.35714,403.43362 c 0,21.89415 -17.74872,39.64286 -39.64286,39.64286 -21.89415,0 -39.64286,-17.74871 -39.64286,-39.64286 0,-21.89414 17.74871,-39.64285 39.64286,-39.64285 21.89414,0 39.64286,17.74871 39.64286,39.64285 z"
       sodipodi:ry="39.642857"
       sodipodi:rx="39.642857"
       sodipodi:cy="403.43362"
       sodipodi:cx="190.71428"
       id="path22359-3-9-4-0-8-2-3-0-4-2-1-8-9-5-8-2-0-5-8-2-2-8-5-2-8-6-7-5-5-1-1-1-7"
       style="fill:#ffffff;fill-opacity:1;stroke:none"
       sodipodi:type="arc" />
    <path
       transform="matrix(0.09307798,0.00542274,-0.00542274,0.09307798,247.96045,428.51851)"
       d="m 230.35714,403.43362 c 0,21.89415 -17.74872,39.64286 -39.64286,39.64286 -21.89415,0 -39.64286,-17.74871 -39.64286,-39.64286 0,-21.89414 17.74871,-39.64285 39.64286,-39.64285 21.89414,0 39.64286,17.74871 39.64286,39.64285 z"
       sodipodi:ry="39.642857"
       sodipodi:rx="39.642857"
       sodipodi:cy="403.43362"
       sodipodi:cx="190.71428"
       id="path22363-8-1-8-0-7-4-7-5-0-4-2-0-0-3-71-5-0-8-7-2-7-1-9-7-4-5-0-5-9-5-3-7-7"
       style="fill:#ffffff;fill-opacity:1;stroke:none"
       sodipodi:type="arc" />
  </g>
</svg>
